<svg width="23" height="24" viewBox="0 0 23 24" fill="none" xmlns="http://www.w3.org/2000/svg">
<circle cx="11.3135" cy="12.0001" r="9" fill="#2DC78F"/>
<path d="M13.9251 9.03016C13.8448 8.99473 13.7583 8.9755 13.6706 8.97359L8.95655 8.97359C8.86864 8.97359 8.78159 8.9909 8.70038 9.02454C8.61917 9.05818 8.54537 9.10749 8.48321 9.16965C8.35768 9.29519 8.28715 9.46545 8.28715 9.64298C8.28715 9.73089 8.30447 9.81794 8.33811 9.89915C8.37175 9.98036 8.42105 10.0542 8.48321 10.1163C8.60875 10.2419 8.77901 10.3124 8.95655 10.3124L12.0631 10.3077L8.48514 13.8856C8.36012 14.0106 8.28988 14.1802 8.28988 14.357C8.28988 14.5338 8.36012 14.7034 8.48514 14.8284C8.61017 14.9535 8.77973 15.0237 8.95655 15.0237C9.13336 15.0237 9.30293 14.9535 9.42795 14.8284L13.0059 11.2505L13.0012 14.357C13.0008 14.445 13.0179 14.5322 13.0514 14.6136C13.0849 14.695 13.1342 14.7689 13.1965 14.8312C13.2587 14.8934 13.3326 14.9427 13.414 14.9762C13.4954 15.0097 13.5826 15.0268 13.6706 15.0264C13.7586 15.0268 13.8458 15.0097 13.9272 14.9762C14.0086 14.9427 14.0825 14.8934 14.1447 14.8312C14.207 14.7689 14.2563 14.695 14.2898 14.6136C14.3233 14.5322 14.3403 14.445 14.34 14.357L14.34 9.64298C14.3381 9.55523 14.3188 9.46873 14.2834 9.38842C14.2158 9.22651 14.0871 9.09778 13.9251 9.03016Z" fill="white"/>
</svg>
